# xmcd CD database file
#
# Track frame offsets:
#	187
#	13540
#	27592
#	44777
#	59922
#	72235
#	87647
#	105035
#	122285
#	139292
#
# Disc length: 2017 seconds
#
# Revision: 0
# Processed by: cddbd v1.5PL3 Copyright (c) Steve Scherf et al.
# Submitted via: CDex 1.50beta8
#
DISCID=8e07df0a
DTITLE=鈴木さえ子 - I wish it could be Christmas everyday
DYEAR=1991
DGENRE=Japanese Pop
TTITLE0=夜のウイウイ
TTITLE1=I wish it could be Christmas everyday
TTITLE2=蒸気のたつ町
TTITLE3=ガールスカウト
TTITLE4=夏の豆博士
TTITLE5=バオバブ人
TTITLE6=ジュラルミンの飛行船
TTITLE7=アメリカのELECTRICITY CO.
TTITLE8=フィラデルフィア
TTITLE9=朝のマリンバ
EXTD=YEAR: 1991
EXTT0=
EXTT1=
EXTT2=
EXTT3=
EXTT4=
EXTT5=
EXTT6=
EXTT7=
EXTT8=
EXTT9=
PLAYORDER=
